<svg xmlns="http://www.w3.org/2000/svg" viewBox="0 0 256 256">
  <rect width="256" height="256" fill="#059669"/>
  <path d="M128 40 C 90 40 60 70 60 108 C 60 146 90 176 128 176 C 140 176 151 173 161 168 C 145 163 133 147 133 128 C 133 109 145 93 161 88 C 151 83 140 80 128 80 C 103 80 83 100 83 125 C 83 150 103 170 128 170 C 153 170 173 150 173 125 C 173 115 170 106 165 98 C 180 103 196 103 211 98 C 206 140 170 176 128 176 Z" fill="#10b981"/>
  <text x="128" y="150" font-family="Arial, sans-serif" font-size="80" font-weight="bold" fill="#ffffff" text-anchor="middle" dominant-baseline="middle">CM</text>
</svg>